<mxfile host="app.diagrams.net" modified="2024-05-13T11:12:27.426Z" agent="Mozilla/5.0 (Windows NT 10.0; Win64; x64) AppleWebKit/537.36 (KHTML, like Gecko) Chrome/124.0.0.0 Safari/537.36" etag="yrST-QfC2q1yQF2gWIpv" version="24.2.5" type="device">
  <diagram name="Page-1" id="MyYufLwZ9V1vk5FTATLx">
    <mxGraphModel dx="1290" dy="522" grid="1" gridSize="10" guides="1" tooltips="1" connect="1" arrows="1" fold="1" page="1" pageScale="1" pageWidth="827" pageHeight="1169" math="0" shadow="0">
      <root>
        <mxCell id="0" />
        <mxCell id="1" parent="0" />
        <mxCell id="xANKb2tSlBoGjCdF7jR6-1" value="&lt;h1&gt;&lt;b&gt;&lt;font style=&quot;font-size: 16px;&quot;&gt;Program Flow Chart&lt;/font&gt;&lt;/b&gt;&lt;/h1&gt;" style="text;html=1;align=center;verticalAlign=middle;resizable=0;points=[];autosize=1;strokeColor=none;fillColor=none;" vertex="1" parent="1">
          <mxGeometry x="380.5" y="28" width="180" height="70" as="geometry" />
        </mxCell>
        <mxCell id="xANKb2tSlBoGjCdF7jR6-4" value="" style="edgeStyle=orthogonalEdgeStyle;rounded=0;orthogonalLoop=1;jettySize=auto;html=1;" edge="1" parent="1" target="xANKb2tSlBoGjCdF7jR6-3">
          <mxGeometry relative="1" as="geometry">
            <mxPoint x="610" y="180" as="sourcePoint" />
          </mxGeometry>
        </mxCell>
        <mxCell id="xANKb2tSlBoGjCdF7jR6-2" value="Start" style="ellipse;whiteSpace=wrap;html=1;fillColor=#dae8fc;strokeColor=#6c8ebf;" vertex="1" parent="1">
          <mxGeometry x="565" y="130" width="90" height="50" as="geometry" />
        </mxCell>
        <mxCell id="xANKb2tSlBoGjCdF7jR6-6" value="" style="edgeStyle=orthogonalEdgeStyle;rounded=0;orthogonalLoop=1;jettySize=auto;html=1;" edge="1" parent="1" source="xANKb2tSlBoGjCdF7jR6-3" target="xANKb2tSlBoGjCdF7jR6-5">
          <mxGeometry relative="1" as="geometry" />
        </mxCell>
        <mxCell id="xANKb2tSlBoGjCdF7jR6-3" value="Login" style="rounded=1;whiteSpace=wrap;html=1;fillColor=#d5e8d4;strokeColor=#82b366;" vertex="1" parent="1">
          <mxGeometry x="557" y="220" width="106" height="40" as="geometry" />
        </mxCell>
        <mxCell id="xANKb2tSlBoGjCdF7jR6-8" value="" style="edgeStyle=orthogonalEdgeStyle;rounded=0;orthogonalLoop=1;jettySize=auto;html=1;entryX=0;entryY=0.5;entryDx=0;entryDy=0;" edge="1" parent="1" source="xANKb2tSlBoGjCdF7jR6-5" target="xANKb2tSlBoGjCdF7jR6-3">
          <mxGeometry relative="1" as="geometry">
            <mxPoint x="496" y="210" as="targetPoint" />
            <Array as="points">
              <mxPoint x="497" y="355" />
              <mxPoint x="497" y="240" />
            </Array>
          </mxGeometry>
        </mxCell>
        <mxCell id="xANKb2tSlBoGjCdF7jR6-11" value="" style="edgeStyle=orthogonalEdgeStyle;rounded=0;orthogonalLoop=1;jettySize=auto;html=1;" edge="1" parent="1" source="xANKb2tSlBoGjCdF7jR6-5" target="xANKb2tSlBoGjCdF7jR6-10">
          <mxGeometry relative="1" as="geometry" />
        </mxCell>
        <mxCell id="xANKb2tSlBoGjCdF7jR6-5" value="Login Successful?" style="rhombus;whiteSpace=wrap;html=1;rounded=1;fillColor=#f8cecc;strokeColor=#b85450;" vertex="1" parent="1">
          <mxGeometry x="562" y="310" width="96" height="90" as="geometry" />
        </mxCell>
        <mxCell id="xANKb2tSlBoGjCdF7jR6-9" value="No" style="text;html=1;align=center;verticalAlign=middle;resizable=0;points=[];autosize=1;strokeColor=none;fillColor=none;" vertex="1" parent="1">
          <mxGeometry x="517" y="320" width="40" height="30" as="geometry" />
        </mxCell>
        <mxCell id="xANKb2tSlBoGjCdF7jR6-14" value="" style="edgeStyle=orthogonalEdgeStyle;rounded=0;orthogonalLoop=1;jettySize=auto;html=1;exitX=0.5;exitY=1;exitDx=0;exitDy=0;" edge="1" parent="1" source="xANKb2tSlBoGjCdF7jR6-10" target="xANKb2tSlBoGjCdF7jR6-13">
          <mxGeometry relative="1" as="geometry">
            <Array as="points">
              <mxPoint x="610" y="560" />
              <mxPoint x="137" y="560" />
            </Array>
          </mxGeometry>
        </mxCell>
        <mxCell id="xANKb2tSlBoGjCdF7jR6-10" value="Display Menu, and&amp;nbsp;&lt;div&gt;prompt user to&amp;nbsp;&lt;/div&gt;&lt;div&gt;select an option&lt;/div&gt;" style="shape=parallelogram;perimeter=parallelogramPerimeter;whiteSpace=wrap;html=1;fixedSize=1;rounded=1;fillColor=#fff2cc;strokeColor=#d6b656;" vertex="1" parent="1">
          <mxGeometry x="537" y="450" width="146" height="70" as="geometry" />
        </mxCell>
        <mxCell id="xANKb2tSlBoGjCdF7jR6-12" value="Yes" style="text;html=1;align=center;verticalAlign=middle;resizable=0;points=[];autosize=1;strokeColor=none;fillColor=none;" vertex="1" parent="1">
          <mxGeometry x="610" y="410" width="40" height="30" as="geometry" />
        </mxCell>
        <mxCell id="xANKb2tSlBoGjCdF7jR6-16" value="" style="edgeStyle=orthogonalEdgeStyle;rounded=0;orthogonalLoop=1;jettySize=auto;html=1;" edge="1" parent="1" source="xANKb2tSlBoGjCdF7jR6-13" target="xANKb2tSlBoGjCdF7jR6-15">
          <mxGeometry relative="1" as="geometry" />
        </mxCell>
        <mxCell id="xANKb2tSlBoGjCdF7jR6-13" value="r - Register User" style="whiteSpace=wrap;html=1;rounded=1;fillColor=#d5e8d4;strokeColor=#82b366;" vertex="1" parent="1">
          <mxGeometry x="76.5" y="610" width="120" height="60" as="geometry" />
        </mxCell>
        <mxCell id="xANKb2tSlBoGjCdF7jR6-18" value="" style="edgeStyle=orthogonalEdgeStyle;rounded=0;orthogonalLoop=1;jettySize=auto;html=1;" edge="1" parent="1" source="xANKb2tSlBoGjCdF7jR6-15" target="xANKb2tSlBoGjCdF7jR6-17">
          <mxGeometry relative="1" as="geometry" />
        </mxCell>
        <mxCell id="xANKb2tSlBoGjCdF7jR6-15" value="Get username, password,&amp;nbsp;&lt;div&gt;and confirmation&amp;nbsp;&lt;div&gt;password from user&lt;/div&gt;&lt;/div&gt;" style="shape=parallelogram;perimeter=parallelogramPerimeter;whiteSpace=wrap;html=1;fixedSize=1;rounded=1;fillColor=#fff2cc;strokeColor=#d6b656;" vertex="1" parent="1">
          <mxGeometry x="49" y="710" width="175" height="70" as="geometry" />
        </mxCell>
        <mxCell id="xANKb2tSlBoGjCdF7jR6-20" value="" style="edgeStyle=orthogonalEdgeStyle;rounded=0;orthogonalLoop=1;jettySize=auto;html=1;" edge="1" parent="1" source="xANKb2tSlBoGjCdF7jR6-17" target="xANKb2tSlBoGjCdF7jR6-19">
          <mxGeometry relative="1" as="geometry" />
        </mxCell>
        <mxCell id="xANKb2tSlBoGjCdF7jR6-23" value="" style="edgeStyle=orthogonalEdgeStyle;rounded=0;orthogonalLoop=1;jettySize=auto;html=1;entryX=0;entryY=0.5;entryDx=0;entryDy=0;" edge="1" parent="1" source="xANKb2tSlBoGjCdF7jR6-17" target="xANKb2tSlBoGjCdF7jR6-15">
          <mxGeometry relative="1" as="geometry">
            <mxPoint x="19" y="730" as="targetPoint" />
            <Array as="points">
              <mxPoint x="20" y="860" />
              <mxPoint x="20" y="745" />
            </Array>
          </mxGeometry>
        </mxCell>
        <mxCell id="xANKb2tSlBoGjCdF7jR6-17" value="All details valid?" style="rhombus;whiteSpace=wrap;html=1;rounded=1;fillColor=#f8cecc;strokeColor=#b85450;" vertex="1" parent="1">
          <mxGeometry x="96.5" y="820" width="80" height="80" as="geometry" />
        </mxCell>
        <mxCell id="xANKb2tSlBoGjCdF7jR6-19" value="Save data into user.txt file" style="whiteSpace=wrap;html=1;rounded=1;fillColor=#d5e8d4;strokeColor=#82b366;" vertex="1" parent="1">
          <mxGeometry x="76.5" y="950" width="120" height="60" as="geometry" />
        </mxCell>
        <mxCell id="xANKb2tSlBoGjCdF7jR6-21" value="Yes" style="text;html=1;align=center;verticalAlign=middle;resizable=0;points=[];autosize=1;strokeColor=none;fillColor=none;" vertex="1" parent="1">
          <mxGeometry x="136.5" y="900" width="40" height="30" as="geometry" />
        </mxCell>
        <mxCell id="xANKb2tSlBoGjCdF7jR6-24" value="No" style="text;html=1;align=center;verticalAlign=middle;resizable=0;points=[];autosize=1;strokeColor=none;fillColor=none;" vertex="1" parent="1">
          <mxGeometry x="39" y="828" width="40" height="30" as="geometry" />
        </mxCell>
        <mxCell id="xANKb2tSlBoGjCdF7jR6-28" value="" style="edgeStyle=orthogonalEdgeStyle;rounded=0;orthogonalLoop=1;jettySize=auto;html=1;" edge="1" parent="1" source="xANKb2tSlBoGjCdF7jR6-25" target="xANKb2tSlBoGjCdF7jR6-27">
          <mxGeometry relative="1" as="geometry" />
        </mxCell>
        <mxCell id="xANKb2tSlBoGjCdF7jR6-25" value="a - Add Task" style="whiteSpace=wrap;html=1;rounded=1;fillColor=#d5e8d4;strokeColor=#82b366;" vertex="1" parent="1">
          <mxGeometry x="305.5" y="610" width="120" height="60" as="geometry" />
        </mxCell>
        <mxCell id="xANKb2tSlBoGjCdF7jR6-26" value="" style="endArrow=classic;html=1;rounded=0;entryX=0.5;entryY=0;entryDx=0;entryDy=0;" edge="1" parent="1" target="xANKb2tSlBoGjCdF7jR6-25">
          <mxGeometry width="50" height="50" relative="1" as="geometry">
            <mxPoint x="366" y="560" as="sourcePoint" />
            <mxPoint x="440" y="650" as="targetPoint" />
          </mxGeometry>
        </mxCell>
        <mxCell id="xANKb2tSlBoGjCdF7jR6-30" value="" style="edgeStyle=orthogonalEdgeStyle;rounded=0;orthogonalLoop=1;jettySize=auto;html=1;" edge="1" parent="1" source="xANKb2tSlBoGjCdF7jR6-27" target="xANKb2tSlBoGjCdF7jR6-29">
          <mxGeometry relative="1" as="geometry" />
        </mxCell>
        <mxCell id="xANKb2tSlBoGjCdF7jR6-27" value="&lt;div&gt;Get the&amp;nbsp;&lt;/div&gt;&lt;div&gt;&lt;ul&gt;&lt;li style=&quot;text-align: left;&quot;&gt;username of the person the task is assigned to,&amp;nbsp;&lt;/li&gt;&lt;li style=&quot;text-align: left;&quot;&gt;the title of&amp;nbsp;&lt;span style=&quot;background-color: initial;&quot;&gt;the task,&amp;nbsp;&lt;/span&gt;&lt;/li&gt;&lt;li style=&quot;text-align: left;&quot;&gt;&lt;span style=&quot;background-color: initial;&quot;&gt;a description of the task, and&lt;/span&gt;&lt;/li&gt;&lt;li style=&quot;text-align: left;&quot;&gt;the due date of the task&lt;/li&gt;&lt;li style=&quot;text-align: left;&quot;&gt;Assigned task date (current)&lt;/li&gt;&lt;li style=&quot;text-align: left;&quot;&gt;Task completed default = No&lt;/li&gt;&lt;/ul&gt;&lt;/div&gt;" style="shape=parallelogram;perimeter=parallelogramPerimeter;whiteSpace=wrap;html=1;fixedSize=1;rounded=1;align=center;fillColor=#fff2cc;strokeColor=#d6b656;" vertex="1" parent="1">
          <mxGeometry x="252.81" y="710" width="225.37" height="150" as="geometry" />
        </mxCell>
        <mxCell id="xANKb2tSlBoGjCdF7jR6-29" value="Save data into tasks.txt" style="whiteSpace=wrap;html=1;rounded=1;fillColor=#d5e8d4;strokeColor=#82b366;" vertex="1" parent="1">
          <mxGeometry x="305.505" y="950" width="120" height="60" as="geometry" />
        </mxCell>
        <mxCell id="xANKb2tSlBoGjCdF7jR6-56" value="" style="edgeStyle=orthogonalEdgeStyle;rounded=0;orthogonalLoop=1;jettySize=auto;html=1;" edge="1" parent="1" source="xANKb2tSlBoGjCdF7jR6-31" target="xANKb2tSlBoGjCdF7jR6-55">
          <mxGeometry relative="1" as="geometry" />
        </mxCell>
        <mxCell id="xANKb2tSlBoGjCdF7jR6-31" value="va - View all Tasks" style="whiteSpace=wrap;html=1;rounded=1;fillColor=#d5e8d4;strokeColor=#82b366;" vertex="1" parent="1">
          <mxGeometry x="530" y="610" width="120" height="60" as="geometry" />
        </mxCell>
        <mxCell id="xANKb2tSlBoGjCdF7jR6-32" value="" style="endArrow=classic;html=1;rounded=0;entryX=0.5;entryY=0;entryDx=0;entryDy=0;" edge="1" parent="1" target="xANKb2tSlBoGjCdF7jR6-31">
          <mxGeometry width="50" height="50" relative="1" as="geometry">
            <mxPoint x="470" y="560" as="sourcePoint" />
            <mxPoint x="580" y="550" as="targetPoint" />
            <Array as="points">
              <mxPoint x="590" y="560" />
            </Array>
          </mxGeometry>
        </mxCell>
        <mxCell id="xANKb2tSlBoGjCdF7jR6-37" value="" style="edgeStyle=orthogonalEdgeStyle;rounded=0;orthogonalLoop=1;jettySize=auto;html=1;entryX=0.5;entryY=0;entryDx=0;entryDy=0;" edge="1" parent="1" source="xANKb2tSlBoGjCdF7jR6-35" target="xANKb2tSlBoGjCdF7jR6-58">
          <mxGeometry relative="1" as="geometry">
            <mxPoint x="790" y="710" as="targetPoint" />
          </mxGeometry>
        </mxCell>
        <mxCell id="xANKb2tSlBoGjCdF7jR6-35" value="vm - View my Tasks" style="whiteSpace=wrap;html=1;rounded=1;fillColor=#d5e8d4;strokeColor=#82b366;" vertex="1" parent="1">
          <mxGeometry x="730" y="610" width="120" height="60" as="geometry" />
        </mxCell>
        <mxCell id="xANKb2tSlBoGjCdF7jR6-38" value="" style="endArrow=classic;html=1;rounded=0;entryX=0.5;entryY=0;entryDx=0;entryDy=0;" edge="1" parent="1" target="xANKb2tSlBoGjCdF7jR6-35">
          <mxGeometry width="50" height="50" relative="1" as="geometry">
            <mxPoint x="590" y="560" as="sourcePoint" />
            <mxPoint x="740" y="535" as="targetPoint" />
            <Array as="points">
              <mxPoint x="790" y="560" />
            </Array>
          </mxGeometry>
        </mxCell>
        <mxCell id="xANKb2tSlBoGjCdF7jR6-42" value="Stop" style="ellipse;whiteSpace=wrap;html=1;fillColor=#dae8fc;strokeColor=#6c8ebf;" vertex="1" parent="1">
          <mxGeometry x="545" y="1119" width="90" height="50" as="geometry" />
        </mxCell>
        <mxCell id="xANKb2tSlBoGjCdF7jR6-43" value="" style="endArrow=none;html=1;rounded=0;" edge="1" parent="1">
          <mxGeometry width="50" height="50" relative="1" as="geometry">
            <mxPoint x="130" y="1080" as="sourcePoint" />
            <mxPoint x="990" y="1080" as="targetPoint" />
          </mxGeometry>
        </mxCell>
        <mxCell id="xANKb2tSlBoGjCdF7jR6-44" value="" style="endArrow=classic;html=1;rounded=0;entryX=0.5;entryY=0;entryDx=0;entryDy=0;" edge="1" parent="1" target="xANKb2tSlBoGjCdF7jR6-42">
          <mxGeometry width="50" height="50" relative="1" as="geometry">
            <mxPoint x="590" y="1080" as="sourcePoint" />
            <mxPoint x="440" y="1110" as="targetPoint" />
          </mxGeometry>
        </mxCell>
        <mxCell id="xANKb2tSlBoGjCdF7jR6-47" value="" style="endArrow=classic;html=1;rounded=0;exitX=0.5;exitY=1;exitDx=0;exitDy=0;" edge="1" parent="1" source="xANKb2tSlBoGjCdF7jR6-29">
          <mxGeometry width="50" height="50" relative="1" as="geometry">
            <mxPoint x="390" y="1160" as="sourcePoint" />
            <mxPoint x="366" y="1080" as="targetPoint" />
          </mxGeometry>
        </mxCell>
        <mxCell id="xANKb2tSlBoGjCdF7jR6-50" value="" style="endArrow=classic;html=1;rounded=0;" edge="1" parent="1">
          <mxGeometry width="50" height="50" relative="1" as="geometry">
            <mxPoint x="136" y="1010" as="sourcePoint" />
            <mxPoint x="136" y="1080" as="targetPoint" />
          </mxGeometry>
        </mxCell>
        <mxCell id="xANKb2tSlBoGjCdF7jR6-51" value="" style="endArrow=classic;html=1;rounded=0;exitX=0.5;exitY=1;exitDx=0;exitDy=0;" edge="1" parent="1">
          <mxGeometry width="50" height="50" relative="1" as="geometry">
            <mxPoint x="590.5" y="770" as="sourcePoint" />
            <mxPoint x="591" y="1080" as="targetPoint" />
          </mxGeometry>
        </mxCell>
        <mxCell id="xANKb2tSlBoGjCdF7jR6-52" value="" style="endArrow=classic;html=1;rounded=0;exitX=0.5;exitY=1;exitDx=0;exitDy=0;" edge="1" parent="1">
          <mxGeometry width="50" height="50" relative="1" as="geometry">
            <mxPoint x="789.5" y="770" as="sourcePoint" />
            <mxPoint x="789.5" y="1080" as="targetPoint" />
          </mxGeometry>
        </mxCell>
        <mxCell id="xANKb2tSlBoGjCdF7jR6-61" value="" style="edgeStyle=orthogonalEdgeStyle;rounded=0;orthogonalLoop=1;jettySize=auto;html=1;" edge="1" parent="1" source="xANKb2tSlBoGjCdF7jR6-53" target="xANKb2tSlBoGjCdF7jR6-60">
          <mxGeometry relative="1" as="geometry" />
        </mxCell>
        <mxCell id="xANKb2tSlBoGjCdF7jR6-53" value="e - Exit" style="whiteSpace=wrap;html=1;rounded=1;fillColor=#d5e8d4;strokeColor=#82b366;" vertex="1" parent="1">
          <mxGeometry x="920" y="610" width="120" height="60" as="geometry" />
        </mxCell>
        <mxCell id="xANKb2tSlBoGjCdF7jR6-55" value="Display all tasks" style="shape=parallelogram;perimeter=parallelogramPerimeter;whiteSpace=wrap;html=1;fixedSize=1;fillColor=#fff2cc;strokeColor=#d6b656;" vertex="1" parent="1">
          <mxGeometry x="530" y="715" width="120" height="60" as="geometry" />
        </mxCell>
        <mxCell id="xANKb2tSlBoGjCdF7jR6-58" value="Display the tasks assigned to the&amp;nbsp;&lt;div&gt;current user&lt;/div&gt;" style="shape=parallelogram;perimeter=parallelogramPerimeter;whiteSpace=wrap;html=1;fixedSize=1;fillColor=#fff2cc;strokeColor=#d6b656;" vertex="1" parent="1">
          <mxGeometry x="720" y="717.5" width="140" height="55" as="geometry" />
        </mxCell>
        <mxCell id="xANKb2tSlBoGjCdF7jR6-64" value="" style="edgeStyle=orthogonalEdgeStyle;rounded=0;orthogonalLoop=1;jettySize=auto;html=1;" edge="1" parent="1" source="xANKb2tSlBoGjCdF7jR6-60">
          <mxGeometry relative="1" as="geometry">
            <mxPoint x="980" y="1080" as="targetPoint" />
          </mxGeometry>
        </mxCell>
        <mxCell id="xANKb2tSlBoGjCdF7jR6-60" value="End program" style="whiteSpace=wrap;html=1;rounded=1;fillColor=#d5e8d4;strokeColor=#82b366;" vertex="1" parent="1">
          <mxGeometry x="920" y="717.5" width="120" height="60" as="geometry" />
        </mxCell>
        <mxCell id="xANKb2tSlBoGjCdF7jR6-62" value="" style="endArrow=classic;html=1;rounded=0;entryX=0.5;entryY=0;entryDx=0;entryDy=0;" edge="1" parent="1" target="xANKb2tSlBoGjCdF7jR6-53">
          <mxGeometry width="50" height="50" relative="1" as="geometry">
            <mxPoint x="790" y="560" as="sourcePoint" />
            <mxPoint x="970" y="500" as="targetPoint" />
            <Array as="points">
              <mxPoint x="980" y="560" />
            </Array>
          </mxGeometry>
        </mxCell>
      </root>
    </mxGraphModel>
  </diagram>
</mxfile>
